<svg width="48" height="43" viewBox="0 0 48 43" fill="none" xmlns="http://www.w3.org/2000/svg">
<g clip-path="url(#clip0_5_127)">
<path d="M48.0001 21.6317C48.0001 9.68306 37.2541 -0.00268555 24.0001 -0.00268555C10.7401 1.95322e-06 -0.00588989 9.68307 -0.00588989 21.6344C-0.00588989 32.4301 8.77211 41.3794 20.2441 43.0027V27.8855H14.1541V21.6344H20.2501V16.8641C20.2501 11.4434 23.8351 8.4495 29.3161 8.4495C31.9441 8.4495 34.6891 8.87144 34.6891 8.87144V14.1927H31.6621C28.6831 14.1927 27.7531 15.8616 27.7531 17.5736V21.6317H34.4071L33.3451 27.8828H27.7501V43C39.2221 41.3768 48.0001 32.4274 48.0001 21.6317Z" fill="#FF9A62"/>
</g>
<defs>
<clipPath id="clip0_5_127">
<rect width="48" height="43" fill="white"/>
</clipPath>
</defs>
</svg>
