<svg width="39" height="40" viewBox="0 0 39 40" fill="none" xmlns="http://www.w3.org/2000/svg">
<g clip-path="url(#clip0_5_129)">
<path d="M11.4238 0.139975C9.34865 0.239975 7.93165 0.579975 6.69503 1.07831C5.39457 1.58356 4.21684 2.37292 3.24353 3.39164C2.25438 4.39267 1.48921 5.60226 1.00103 6.93664C0.521653 8.20998 0.195028 9.66664 0.104028 11.7933C0.0130283 13.92 -0.00809674 14.6066 0.00165326 20.0383C0.0114033 25.47 0.0357783 26.15 0.136528 28.2833C0.235653 30.4116 0.565528 31.865 1.0514 33.135C1.5519 34.45 2.2214 35.5633 3.3069 36.6733C4.28384 37.6882 5.46434 38.473 6.76653 38.9733C8.0064 39.465 9.42503 39.8 11.5002 39.8933C13.5769 39.9866 14.2448 40.0083 19.539 39.9983C24.8333 39.9883 25.4995 39.9633 27.5779 39.8616C29.6579 39.7616 31.0668 39.42 32.3067 38.9233C33.6065 38.4178 34.7837 37.6285 35.7565 36.61C36.7461 35.608 37.5113 34.3972 37.999 33.0616C38.4784 31.79 38.805 30.335 38.8944 28.2083C38.9854 26.075 39.0081 25.3916 38.9968 19.9616C38.987 14.5316 38.9643 13.85 38.8652 11.7166C38.7677 9.58331 38.4362 8.13664 37.9487 6.86498C37.4563 5.53192 36.6872 4.32459 35.6948 3.32664C34.7183 2.31193 33.5384 1.52713 32.2368 1.02664C30.9953 0.536642 29.5783 0.199975 27.5015 0.109975C25.4264 0.0149752 24.7585 -0.0100248 19.4627 -2.47874e-05C14.1668 0.00997521 13.5038 0.0349752 11.4238 0.139975ZM11.6513 36.295C9.75003 36.2116 8.71815 35.8866 8.03078 35.615C7.18246 35.2971 6.41488 34.7872 5.78503 34.1233C5.13559 33.4801 4.63573 32.6951 4.32253 31.8266C4.0544 31.1216 3.73265 30.0633 3.6449 28.1133C3.5474 26.0066 3.5279 25.3733 3.5149 20.0333C3.50515 14.6933 3.52465 14.0616 3.61403 11.9533C3.69528 10.005 4.01378 8.94497 4.27703 8.23997C4.62803 7.30498 5.05215 6.63998 5.7314 5.93664C6.35902 5.27034 7.12494 4.75765 7.97228 4.43664C8.65965 4.16164 9.6899 3.83498 11.5912 3.74164C13.6468 3.64164 14.2627 3.62164 19.4692 3.60831C24.674 3.59831 25.2915 3.61831 27.3504 3.71164C29.2484 3.79498 30.2819 4.11831 30.9693 4.39164C31.8793 4.75164 32.5293 5.18331 33.215 5.88331C33.9008 6.58331 34.3217 7.24498 34.6775 8.17998C34.9457 8.88331 35.2658 9.93998 35.3552 11.8916C35.4527 14 35.4754 14.6333 35.4852 19.9716C35.4933 25.31 35.4754 25.9433 35.386 28.0516C35.3032 30.0016 34.9879 31.06 34.723 31.7683C34.372 32.7016 33.9479 33.3683 33.267 34.0683C32.6399 34.7344 31.8745 35.2471 31.0278 35.5683C30.342 35.8433 29.3085 36.1716 27.4105 36.265C25.3533 36.365 24.7374 36.385 19.5293 36.3966C14.3212 36.4083 13.7085 36.385 11.6513 36.295ZM27.5486 9.30998C27.5493 9.78472 27.6872 10.2486 27.9449 10.643C28.2027 11.0373 28.5686 11.3444 28.9966 11.5254C29.4245 11.7064 29.8951 11.7531 30.349 11.6597C30.8028 11.5664 31.2194 11.337 31.5462 11.0007C31.8729 10.6645 32.095 10.2364 32.1845 9.77056C32.274 9.30477 32.2268 8.82222 32.0488 8.38396C31.8709 7.9457 31.5702 7.57142 31.1848 7.30845C30.7994 7.04549 30.3467 6.90565 29.8838 6.90664C29.2635 6.90797 28.669 7.16187 28.2311 7.61253C27.7933 8.0632 27.5478 8.67374 27.5486 9.30998ZM9.4884 20.02C9.49358 22.7435 10.5534 25.3534 12.4348 27.2755C14.3161 29.1976 16.8649 30.2744 19.5203 30.2691C22.1758 30.2638 24.7205 29.1768 26.5945 27.2472C28.4685 25.3176 29.5184 22.7035 29.5133 19.98C29.475 17.2789 28.4006 14.702 26.5229 12.8077C24.6452 10.9133 22.1154 9.85402 19.4816 9.85928C16.8477 9.86455 14.322 10.9339 12.4515 12.8358C10.581 14.7376 9.51643 17.3188 9.4884 20.02ZM13 20.0133C12.9975 18.6948 13.3762 17.4051 14.0883 16.3073C14.8003 15.2095 15.8138 14.3529 17.0006 13.8459C18.1873 13.3389 19.494 13.2042 20.7554 13.4588C22.0167 13.7135 23.1762 14.346 24.087 15.2765C24.9979 16.207 25.6192 17.3936 25.8726 18.6863C26.1259 19.979 25.9998 21.3197 25.5102 22.5389C25.0206 23.7581 24.1895 24.801 23.122 25.5357C22.0545 26.2704 20.7986 26.664 19.513 26.6666C18.6594 26.6684 17.8139 26.4977 17.0246 26.1643C16.2353 25.8309 15.5178 25.3413 14.913 24.7235C14.3082 24.1056 13.828 23.3717 13.4998 22.5635C13.1715 21.7554 13.0017 20.8888 13 20.0133Z" fill="#FF9A62"/>
</g>
<defs>
<clipPath id="clip0_5_129">
<rect width="39" height="40" fill="white"/>
</clipPath>
</defs>
</svg>
