<svg width="42" height="37" viewBox="0 0 42 37" fill="none" xmlns="http://www.w3.org/2000/svg">
<path d="M16.4044 9.879C14.8819 9.93065 13.5056 10.4093 12.7697 11.0584C12.6884 11.1299 12.5919 11.1867 12.4857 11.2254C12.3795 11.2641 12.2657 11.284 12.1507 11.284C12.0358 11.284 11.922 11.264 11.8159 11.2252C11.7097 11.1864 11.6132 11.1296 11.532 11.058C11.4508 10.9864 11.3863 10.9014 11.3424 10.8078C11.2984 10.7142 11.2758 10.614 11.2759 10.5127C11.2759 10.4115 11.2986 10.3112 11.3426 10.2177C11.3866 10.1242 11.4511 10.0392 11.5324 9.96764C12.6673 8.96787 14.5153 8.40054 16.3362 8.3381C18.1693 8.27567 20.1704 8.71735 21.5722 9.95223C21.7362 10.0969 21.8284 10.293 21.8283 10.4975C21.8282 10.702 21.7359 10.898 21.5717 11.0426C21.4076 11.1871 21.1849 11.2683 20.9528 11.2682C20.7207 11.2681 20.4981 11.1868 20.3341 11.0422C19.3803 10.2012 17.9156 9.82658 16.4044 9.87823" fill="#FF9A62"/>
<path fill-rule="evenodd" clip-rule="evenodd" d="M23.961 22.3048C21.9108 23.8333 19.3108 24.6703 16.625 24.6667C10.3425 24.6667 5.25 20.1804 5.25 14.6458C5.25 9.11125 10.3425 4.625 16.625 4.625C22.9075 4.625 28 9.11125 28 14.6458C28 17.1086 26.992 19.3633 25.319 21.1085L27.251 20.8125L36.2495 28.7398C36.9171 29.3279 36.9171 30.2814 36.2495 30.8688L35.0403 31.9341C34.3726 32.5222 33.2903 32.5222 32.6235 31.9341L23.625 24.0068L23.961 22.3048ZM26.25 14.6458C26.25 19.3286 21.9406 23.125 16.625 23.125C11.3094 23.125 7 19.3286 7 14.6458C7 9.96302 11.3094 6.16667 16.625 6.16667C21.9406 6.16667 26.25 9.96302 26.25 14.6458ZM32.5929 27.6984L26.656 22.4683L25.676 22.6186L25.5045 23.4827L31.4589 28.7282L32.5929 27.6984ZM32.6961 29.8181L33.8319 30.8187L34.9834 29.8043L33.8301 28.7883L32.6961 29.8181Z" fill="#FF9A62"/>
</svg>
