<svg width="45" height="40" viewBox="0 0 45 40" fill="none" xmlns="http://www.w3.org/2000/svg">
<path d="M22.1938 34L28.4875 28.35L22.1938 22.7L19.875 24.8L22.249 26.95C21.2184 26.9833 20.2158 26.8333 19.2412 26.5C18.2666 26.1667 17.3921 25.65 16.6177 24.95C15.8816 24.2833 15.3199 23.5167 14.9328 22.65C14.5456 21.7833 14.3527 20.9167 14.3542 20.05C14.3542 19.4833 14.4373 18.9167 14.6037 18.35C14.7701 17.7833 14.9997 17.2333 15.2927 16.7L12.8635 14.5C12.2378 15.3333 11.7778 16.2167 11.4833 17.15C11.1889 18.0833 11.0417 19.0333 11.0417 20C11.0417 21.2667 11.3177 22.5167 11.8698 23.75C12.4219 24.9833 13.2316 26.0833 14.299 27.05C15.3663 28.0167 16.5625 28.742 17.8875 29.226C19.2125 29.71 20.5743 29.968 21.9729 30L19.875 31.9L22.1938 34ZM31.3031 25.5C31.9288 24.6667 32.3889 23.7833 32.6833 22.85C32.9778 21.9167 33.125 20.9667 33.125 20C33.125 18.7333 32.8578 17.4747 32.3234 16.224C31.789 14.9733 30.9888 13.8653 29.9229 12.9C28.8556 11.9333 27.6498 11.2167 26.3057 10.75C24.9615 10.2833 23.5909 10.05 22.1938 10.05L24.2917 8.1L21.9729 6L15.6792 11.65L21.9729 17.3L24.2917 15.2L21.8625 13C22.8563 13 23.8684 13.1753 24.899 13.526C25.9295 13.8767 26.8128 14.3847 27.549 15.05C28.2851 15.7167 28.8467 16.4833 29.2339 17.35C29.6211 18.2167 29.814 19.0833 29.8125 19.95C29.8125 20.5167 29.7301 21.0833 29.5652 21.65C29.4003 22.2167 29.1699 22.7667 28.874 23.3L31.3031 25.5ZM22.0833 40C19.0285 40 16.1576 39.4747 13.4708 38.424C10.784 37.3733 8.44688 35.9487 6.45938 34.15C4.47188 32.35 2.89881 30.2333 1.74017 27.8C0.581528 25.3667 0.00147222 22.7667 0 20C0 17.2333 0.580056 14.6333 1.74017 12.2C2.90028 9.76667 4.47335 7.65 6.45938 5.85C8.44688 4.05 10.784 2.62533 13.4708 1.576C16.1576 0.526667 19.0285 0.00133333 22.0833 0C25.1382 0 28.009 0.525334 30.6958 1.576C33.3826 2.62667 35.7198 4.05133 37.7073 5.85C39.6948 7.65 41.2686 9.76667 42.4287 12.2C43.5888 14.6333 44.1681 17.2333 44.1667 20C44.1667 22.7667 43.5866 25.3667 42.4265 27.8C41.2664 30.2333 39.6933 32.35 37.7073 34.15C35.7198 35.95 33.3826 37.3753 30.6958 38.426C28.009 39.4767 25.1382 40.0013 22.0833 40Z" fill="#AF7723"/>
</svg>
