<svg width="51" height="56" viewBox="0 0 51 56" fill="none" xmlns="http://www.w3.org/2000/svg">
<g clip-path="url(#clip0_5_131)">
<path fill-rule="evenodd" clip-rule="evenodd" d="M25.5 9.33337C27.3169 9.33337 29.1805 9.38471 30.9867 9.46871L33.1203 9.58071L35.1624 9.71371L37.0749 9.85604L38.8216 10.0054C40.7172 10.1647 42.5009 11.0529 43.859 12.5138C45.217 13.9747 46.0624 15.9146 46.2464 17.9924L46.3314 18.984L46.4907 21.1074C46.6395 23.3077 46.75 25.7064 46.75 28C46.75 30.2937 46.6395 32.6924 46.4907 34.8927L46.3314 37.016C46.3037 37.3567 46.2761 37.6857 46.2464 38.0077C46.0623 40.0858 45.2167 42.0261 43.8582 43.487C42.4997 44.9479 40.7155 45.8359 38.8195 45.9947L37.077 46.1417L35.1645 46.2864L33.1203 46.4194L30.9867 46.5314C29.1589 46.6186 27.3296 46.6637 25.5 46.6667C23.6704 46.6637 21.8411 46.6186 20.0133 46.5314L17.8797 46.4194L15.8376 46.2864L13.9251 46.1417L12.1784 45.9947C10.2828 45.8354 8.49905 44.9472 7.141 43.4863C5.78296 42.0254 4.9376 40.0854 4.75362 38.0077L4.66863 37.016L4.50925 34.8927C4.34677 32.5994 4.26029 30.3003 4.25 28C4.25 25.7064 4.3605 23.3077 4.50925 21.1074L4.66863 18.984C4.69625 18.6434 4.72387 18.3144 4.75362 17.9924C4.93752 15.915 5.78259 13.9753 7.14019 12.5145C8.4978 11.0537 10.281 10.1652 12.1762 10.0054L13.9209 9.85604L15.8334 9.71371L17.8776 9.58071L20.0111 9.46871C21.8397 9.38152 23.6697 9.3364 25.5 9.33337ZM21.25 22.3417V33.6584C21.25 34.7364 22.3125 35.4084 23.1625 34.8717L32.0875 29.2134C32.2817 29.0906 32.443 28.9138 32.5552 28.7008C32.6674 28.4878 32.7264 28.2461 32.7264 28C32.7264 27.754 32.6674 27.5123 32.5552 27.2993C32.443 27.0862 32.2817 26.9095 32.0875 26.7867L23.1625 21.1307C22.9686 21.0078 22.7487 20.9431 22.5248 20.9431C22.3009 20.9432 22.081 21.0079 21.8871 21.1309C21.6933 21.2539 21.5324 21.4308 21.4205 21.6437C21.3087 21.8567 21.2499 22.0982 21.25 22.344V22.3417Z" fill="#FF9A62"/>
</g>
<defs>
<clipPath id="clip0_5_131">
<rect width="51" height="56" fill="white"/>
</clipPath>
</defs>
</svg>
